<svg width="24" height="24" viewBox="0 0 24 24" xmlns="http://www.w3.org/2000/svg">
    <path d="M12 2c5.523 0 10 4.477 10 10s-4.477 10-10 10S2 17.523 2 12 6.477 2 12 2zm-.086 15a1.01 1.01 0 0 0-1.021 1c0 .552.457 1 1.021 1a1.01 1.01 0 0 0 1.022-1c0-.552-.458-1-1.022-1zm0-11c-1.749 0-3.286 1.085-3.856 2.675a.995.995 0 0 0 .626 1.275 1.027 1.027 0 0 0 1.302-.613A2.042 2.042 0 0 1 11.914 8c1.128 0 2.043.895 2.043 2s-.915 2-2.046 2h-.018a1 1 0 0 0-1 1v2a1 1 0 0 0 2 0v-1.115C14.677 13.455 16 11.879 16 10c0-2.21-1.83-4-4.086-4z" fill="#FFF" fill-rule="evenodd"/>
</svg>
