<svg width="24" height="24" viewBox="0 0 24 24" xmlns="http://www.w3.org/2000/svg" xmlns:xlink="http://www.w3.org/1999/xlink">
    <defs>
        <path d="M12 2C6.48 2 2 6.48 2 12s4.48 10 10 10 10-4.48 10-10S17.52 2 12 2zm0 15c-.55 0-1-.45-1-1v-4c0-.55.45-1 1-1s1 .45 1 1v4c0 .55-.45 1-1 1zm0-8a1 1 0 1 1 0-2 1 1 0 0 1 0 2z" id="q39zk75kta"/>
    </defs>
    <g fill="none" fill-rule="evenodd">
        <path d="M0 0h24v24H0z"/>
        <g transform="matrix(1 0 0 -1 0 24)">
            <use fill="#172A26" xlink:href="#q39zk75kta"/>
            <use fill="#FF3B3B" xlink:href="#q39zk75kta"/>
        </g>
    </g>
</svg>
