<svg width="33.6" height="33.6" viewBox="0 0 33.6 33.6" xmlns="http://www.w3.org/2000/svg">
    <g fill="none" fill-rule="evenodd">
        <path d="M0 0h33.6v33.6H0z"/>
        <path d="M0 0h33.6v33.6H0z"/>
        <path d="M28.826 14H17.71a8.406 8.406 0 0 0-9.632-5.432c-3.206.644-5.81 3.22-6.482 6.412A8.403 8.403 0 0 0 9.8 25.2a8.387 8.387 0 0 0 7.91-5.6h.49l1.806 1.806a1.394 1.394 0 0 0 1.974 0L23.8 19.6l1.806 1.806a1.411 1.411 0 0 0 1.988 0l3.626-3.654a1.399 1.399 0 0 0-.014-1.988l-1.386-1.358a1.434 1.434 0 0 0-.994-.406zM9.8 21c-2.31 0-4.2-1.89-4.2-4.2 0-2.31 1.89-4.2 4.2-4.2 2.31 0 4.2 1.89 4.2 4.2 0 2.31-1.89 4.2-4.2 4.2z" fill="#FFF"/>
    </g>
</svg>
