<svg width="40" height="40" viewBox="0 0 40 40" xmlns="http://www.w3.org/2000/svg">
    <g fill="none" fill-rule="evenodd">
        <path d="M0 0h40v40H0z"/>
        <path d="M0 0h40v40H0z"/>
        <path d="M20 3.333C10.8 3.333 3.333 10.8 3.333 20c0 9.2 7.467 16.667 16.667 16.667 9.2 0 16.667-7.467 16.667-16.667C36.667 10.8 29.2 3.333 20 3.333zM20 10a5.84 5.84 0 0 1 5.833 5.833A5.84 5.84 0 0 1 20 21.667a5.84 5.84 0 0 1-5.833-5.834A5.84 5.84 0 0 1 20 10zm0 23.333c-3.383 0-7.383-1.366-10.233-4.8A16.578 16.578 0 0 1 20 25c3.867 0 7.417 1.333 10.233 3.533-2.85 3.434-6.85 4.8-10.233 4.8z" fill="#FFF"/>
    </g>
</svg>
